# xmcd
#
# Track frame offsets: 
#        150
#        20668
#        38706
#        61279
#        82316
#        103099
#        122261
#        142443
#        159505
#        177397
#        199788
#        222626
#        241097
#        261897
#        285017
#
# Disc length: 4070 seconds
#
# Revision: 1
# Processed by: cddbd v1.5.2PL0 Copyright (c) Steve Scherf et al.
# Submitted via: ExactAudioCopyFreeDBPlugin 1.0
#
DISCID=dc0fe40f
DTITLE=群星 - 發燒心醉
DYEAR=2010
DGENRE=Blues
TTITLE0=在那遙遠的地方
TTITLE1=一江水
TTITLE2=西海情歌
TTITLE3=套馬桿
TTITLE4=離別的秋天
TTITLE5=忘了我忘不了你
TTITLE6=橄欖樹
TTITLE7=心上人像達瑪花
TTITLE8=寂寞沙洲冷
TTITLE9=母親
TTITLE10=天上西藏
TTITLE11=齊曼尼花園
TTITLE12=我要去西藏
TTITLE13=二分之一的愛情
TTITLE14=請跟我來
EXTD=
EXTT0=
EXTT1=
EXTT2=
EXTT3=
EXTT4=
EXTT5=
EXTT6=
EXTT7=
EXTT8=
EXTT9=
EXTT10=
EXTT11=
EXTT12=
EXTT13=
EXTT14=
PLAYORDER=
